<svg id="Capa_1" data-name="Capa 1" xmlns="http://www.w3.org/2000/svg" viewBox="0 0 665.7 91"><defs><style>.cls-1{fill:#0033a0;}.cls-2{fill:#00aec7;}.cls-3{fill:none;stroke:#0033a0;stroke-linecap:round;stroke-linejoin:round;stroke-width:2.6px;}</style></defs><title>consultarunt.co</title><path class="cls-1" d="M87.92,319.22a8.35,8.35,0,0,1-.89,3.91A8.5,8.5,0,0,1,84.5,326a11.6,11.6,0,0,1-3.88,1.82,19,19,0,0,1-5,.62,22.1,22.1,0,0,1-6.9-1,14.4,14.4,0,0,1-5.55-3.39l3-2.95a10.09,10.09,0,0,0,4.19,2.71,16.59,16.59,0,0,0,5.24.8,11.18,11.18,0,0,0,5.91-1.33,4.41,4.41,0,0,0,2.16-4,4,4,0,0,0-1.2-3.08,6.47,6.47,0,0,0-3.85-1.36l-5-.43A11.62,11.62,0,0,1,66.82,312a7.23,7.23,0,0,1-2.31-5.77,7.91,7.91,0,0,1,3.14-6.5A10.86,10.86,0,0,1,71.19,298a15.63,15.63,0,0,1,4.47-.62,22.16,22.16,0,0,1,6.07.8,13.44,13.44,0,0,1,4.84,2.47l-2.9,2.89A10.81,10.81,0,0,0,80,301.75a16.15,16.15,0,0,0-4.41-.59,8.2,8.2,0,0,0-5,1.32,4.39,4.39,0,0,0-1.73,3.67,4,4,0,0,0,1.2,3.08,7,7,0,0,0,4.1,1.36L79,311a18.58,18.58,0,0,1,3.63.68,7.76,7.76,0,0,1,2.84,1.48,6.62,6.62,0,0,1,1.82,2.46A9,9,0,0,1,87.92,319.22Z" transform="translate(-63.15 -260.5)"/><path class="cls-1" d="M112.94,328.09V324.7a10.49,10.49,0,0,1-3.79,2.8,11.75,11.75,0,0,1-4.77,1,10.58,10.58,0,0,1-7.83-2.84,9.63,9.63,0,0,1-2.34-3.72,14.58,14.58,0,0,1-.74-4.78V297.77h4.44v18.67c0,2.71.65,4.74,2,6.07a7.23,7.23,0,0,0,5.42,2,7.52,7.52,0,0,0,5.52-2c1.37-1.35,2.06-3.37,2.06-6V297.77h4.44v30.32Z" transform="translate(-63.15 -260.5)"/><path class="cls-1" d="M142.52,303.56a8.09,8.09,0,0,0-2.34-1.72,8.26,8.26,0,0,0-5.92.12,6.4,6.4,0,0,0-2.28,1.73,8.33,8.33,0,0,0-1.45,2.58,9.56,9.56,0,0,0-.52,3.21v18.61h-4.44V297.77H130v3.7a8.25,8.25,0,0,1,3.54-3,11.59,11.59,0,0,1,5-1.08,11.81,11.81,0,0,1,3.92.62,8.9,8.9,0,0,1,3.35,2.22Z" transform="translate(-63.15 -260.5)"/><path class="cls-1" d="M165.26,328.09v-2.9a10.68,10.68,0,0,1-3.79,2.56,14.76,14.76,0,0,1-5,.71,17.14,17.14,0,0,1-5.15-.65,8.15,8.15,0,0,1-3.42-2.12,7.3,7.3,0,0,1-1.69-2.75,9.8,9.8,0,0,1-.59-3.42,8.06,8.06,0,0,1,2.68-6.37q2.68-2.38,7.8-2.38h9.12v-2.89a6.48,6.48,0,0,0-1.79-5q-1.78-1.67-6-1.67a11.3,11.3,0,0,0-4.62.77,7.86,7.86,0,0,0-3,2.68l-3-2.77a10.28,10.28,0,0,1,4.53-3.57,17.86,17.86,0,0,1,6.19-.93q6.16,0,9.15,2.56c2,1.7,3,4.22,3,7.55v20.58Zm0-14h-8.51q-6.78,0-6.78,5.36a4.59,4.59,0,0,0,1.67,3.91c1.11.85,2.87,1.27,5.3,1.27a20.06,20.06,0,0,0,3.66-.31,5.84,5.84,0,0,0,3.11-1.73c1-1,1.55-2.73,1.55-5.23Z" transform="translate(-63.15 -260.5)"/><path class="cls-1" d="M180.41,314.1q0,5,2.28,7.73a8.17,8.17,0,0,0,6.66,2.75,10.26,10.26,0,0,0,4.41-.84,12.85,12.85,0,0,0,3.54-2.61l3,2.64a22,22,0,0,1-2.31,2,12.77,12.77,0,0,1-2.44,1.45,13.13,13.13,0,0,1-2.86.89,18.61,18.61,0,0,1-3.48.31,15.22,15.22,0,0,1-5.46-.93,10.57,10.57,0,0,1-4.16-2.83,13.27,13.27,0,0,1-2.68-4.84,22.62,22.62,0,0,1-1-6.93q0-7.4,3.32-11.46a11.17,11.17,0,0,1,9.13-4.07q5.91,0,9.18,4t3.26,10.72v2Zm16-3.33c-.05-.61-.09-1.15-.13-1.6s-.09-.86-.15-1.23a9.43,9.43,0,0,0-.25-1.08,10.52,10.52,0,0,0-.4-1.14,7,7,0,0,0-2.77-3.33,8.18,8.18,0,0,0-8.63,0,7,7,0,0,0-2.77,3.33,11.65,11.65,0,0,0-.68,2.22,20.29,20.29,0,0,0-.25,2.83Z" transform="translate(-63.15 -260.5)"/><path class="cls-1" d="M226.88,328.09V309.42c0-2.71-.67-4.74-2-6.07a8.42,8.42,0,0,0-10.93,0c-1.36,1.35-2,3.37-2,6v18.67h-4.43V297.77h4.43v3.33a10.25,10.25,0,0,1,3.76-2.77,11.87,11.87,0,0,1,4.75-.93,10.49,10.49,0,0,1,7.76,2.84c2.1,2.05,3.14,4.86,3.14,8.44v19.41Z" transform="translate(-63.15 -260.5)"/><path class="cls-1" d="M246.84,328.09q-4,0-5.85-2.31a8.88,8.88,0,0,1-1.85-5.76V284.21h4.43v35.62a5.34,5.34,0,0,0,.87,3.33c.57.74,1.64,1.11,3.2,1.11h2.41v3.82Z" transform="translate(-63.15 -260.5)"/><path class="cls-1" d="M254.48,289.14v-5h5v5Zm.25,38.95V297.77h4.44v30.32Z" transform="translate(-63.15 -260.5)"/><path class="cls-1" d="M286.89,328.09V309.42c0-2.71-.67-4.74-2-6.07a8.43,8.43,0,0,0-10.94,0c-1.35,1.35-2,3.37-2,6v18.67h-4.44V297.77h4.44v3.33a10.25,10.25,0,0,1,3.76-2.77,11.86,11.86,0,0,1,4.74-.93,10.5,10.5,0,0,1,7.77,2.84,11.28,11.28,0,0,1,3.14,8.44v19.41Z" transform="translate(-63.15 -260.5)"/><path class="cls-1" d="M302.05,314.1q0,5,2.28,7.73a8.17,8.17,0,0,0,6.66,2.75,10.18,10.18,0,0,0,4.4-.84,13,13,0,0,0,3.55-2.61l3,2.64a22,22,0,0,1-2.32,2,13,13,0,0,1-2.43,1.45,13.3,13.3,0,0,1-2.86.89,18.64,18.64,0,0,1-3.49.31,15.16,15.16,0,0,1-5.45-.93,10.57,10.57,0,0,1-4.16-2.83,13.27,13.27,0,0,1-2.68-4.84,22.32,22.32,0,0,1-.95-6.93q0-7.4,3.32-11.46a11.16,11.16,0,0,1,9.12-4.07q5.93,0,9.18,4t3.27,10.72v2Zm16-3.33c0-.61-.08-1.15-.12-1.6s-.09-.86-.15-1.23-.15-.73-.25-1.08-.24-.73-.4-1.14a7.11,7.11,0,0,0-2.77-3.33,8.18,8.18,0,0,0-8.63,0,7,7,0,0,0-2.77,3.33,11.65,11.65,0,0,0-.68,2.22,18.85,18.85,0,0,0-.25,2.83Z" transform="translate(-63.15 -260.5)"/><path class="cls-1" d="M346.3,328.09v-2.9a10.68,10.68,0,0,1-3.79,2.56,14.79,14.79,0,0,1-5,.71,17.07,17.07,0,0,1-5.14-.65,8.08,8.08,0,0,1-3.42-2.12,7.45,7.45,0,0,1-1.7-2.75,10,10,0,0,1-.58-3.42,8.06,8.06,0,0,1,2.68-6.37c1.79-1.59,4.38-2.38,7.79-2.38h9.13v-2.89a6.48,6.48,0,0,0-1.79-5c-1.19-1.11-3.19-1.67-6-1.67a11.3,11.3,0,0,0-4.62.77,7.86,7.86,0,0,0-3,2.68l-3-2.77a10.28,10.28,0,0,1,4.53-3.57,17.86,17.86,0,0,1,6.19-.93q6.17,0,9.15,2.56t3,7.55v20.58Zm0-14h-8.51q-6.78,0-6.78,5.36a4.59,4.59,0,0,0,1.67,3.91c1.11.85,2.87,1.27,5.3,1.27a20.06,20.06,0,0,0,3.66-.31,5.84,5.84,0,0,0,3.11-1.73c1-1,1.55-2.73,1.55-5.23Z" transform="translate(-63.15 -260.5)"/><path class="cls-1" d="M358.56,328.09V322.3h5.79v5.79Z" transform="translate(-63.15 -260.5)"/><path class="cls-1" d="M394.23,324a14.28,14.28,0,0,1-4.59,3.51,13.3,13.3,0,0,1-5.39,1,14.4,14.4,0,0,1-5.33-1,11.49,11.49,0,0,1-4.25-2.89,13.46,13.46,0,0,1-2.83-4.87,20.67,20.67,0,0,1-1-6.81,20.41,20.41,0,0,1,1-6.78,13.49,13.49,0,0,1,2.83-4.84,11.94,11.94,0,0,1,4.25-2.92,14,14,0,0,1,5.33-1,13.3,13.3,0,0,1,5.39,1,14.42,14.42,0,0,1,4.59,3.51l-3,2.83a11.41,11.41,0,0,0-3.27-2.65,8.54,8.54,0,0,0-3.7-.73,9,9,0,0,0-4,.86,7.8,7.8,0,0,0-3,2.59,9.55,9.55,0,0,0-1.51,3.35,24.54,24.54,0,0,0,0,9.56,9.55,9.55,0,0,0,1.51,3.35,7.8,7.8,0,0,0,3,2.59,9,9,0,0,0,4,.86,8.12,8.12,0,0,0,3.7-.77,11.58,11.58,0,0,0,3.27-2.68Z" transform="translate(-63.15 -260.5)"/><path class="cls-1" d="M422.09,312.93a29.86,29.86,0,0,1-.71,6.62,11.33,11.33,0,0,1-3,5.46,11.72,11.72,0,0,1-3.76,2.52,13.53,13.53,0,0,1-9.86,0A11.72,11.72,0,0,1,401,325a10.17,10.17,0,0,1-1.88-2.56,14.72,14.72,0,0,1-1.11-2.9,19.58,19.58,0,0,1-.55-3.17c-.11-1.11-.16-2.26-.16-3.45s.05-2.29.16-3.42a19.58,19.58,0,0,1,.55-3.2,14.72,14.72,0,0,1,1.11-2.9,10,10,0,0,1,1.88-2.56,11.72,11.72,0,0,1,3.76-2.52,13.53,13.53,0,0,1,9.86,0,11.72,11.72,0,0,1,3.76,2.52,11.33,11.33,0,0,1,3,5.46A29.86,29.86,0,0,1,422.09,312.93Zm-4.44,0c0-.86,0-1.73-.06-2.59a17.35,17.35,0,0,0-.31-2.52,10.15,10.15,0,0,0-.74-2.32,7.63,7.63,0,0,0-1.29-1.94,7.52,7.52,0,0,0-5.55-2.21,7.41,7.41,0,0,0-5.48,2.21,6.28,6.28,0,0,0-1.33,1.94,13.4,13.4,0,0,0-.74,2.32,15,15,0,0,0-.34,2.52c0,.86-.06,1.73-.06,2.59s0,1.73.06,2.59a15,15,0,0,0,.34,2.52,14.32,14.32,0,0,0,.74,2.35,5.44,5.44,0,0,0,1.33,1.91,7.45,7.45,0,0,0,5.48,2.21,7.56,7.56,0,0,0,5.55-2.21,6.43,6.43,0,0,0,1.29-1.91,10.73,10.73,0,0,0,.74-2.35,17.35,17.35,0,0,0,.31-2.52C417.63,314.66,417.65,313.79,417.65,312.93Z" transform="translate(-63.15 -260.5)"/><path class="cls-1" d="M467.69,328.09V309.42c0-2.71-.67-4.74-2-6.07a7.33,7.33,0,0,0-5.45-2,7.65,7.65,0,0,0-5.45,2,7.24,7.24,0,0,0-2.13,5.6v19.17h-4.44V309.42c0-2.71-.66-4.74-2-6.07a7.33,7.33,0,0,0-5.45-2,7.52,7.52,0,0,0-5.52,2c-1.38,1.35-2.06,3.37-2.06,6v18.67h-4.44V297.77h4.44v3.33a10.19,10.19,0,0,1,3.79-2.77,12.08,12.08,0,0,1,4.77-.93,11.59,11.59,0,0,1,5.52,1.26,9.47,9.47,0,0,1,3.79,3.79,11.55,11.55,0,0,1,10-5.05,12.68,12.68,0,0,1,4.44.74,9.8,9.8,0,0,1,3.39,2.1,11.19,11.19,0,0,1,3.26,8.44v19.41Z" transform="translate(-63.15 -260.5)"/><g id="_Group_" data-name="&lt;Group&gt;"><g id="_Group_2" data-name="&lt;Group&gt;"><path id="_Path_" data-name="&lt;Path&gt;" class="cls-2" d="M704.26,328.44c.12,0,.12.12.12.23a16.19,16.19,0,0,1-3.22,3,27.66,27.66,0,0,1-4.9,2.86,26.94,26.94,0,0,1-5.25,2.15,12.63,12.63,0,0,1-5,.48,4.8,4.8,0,0,1-2.75-1.08V336c0-.11.12-.11.12-.11a70.84,70.84,0,0,0,12.06-3.11,38,38,0,0,0,8.83-4.29" transform="translate(-63.15 -260.5)"/><path id="_Path_2" data-name="&lt;Path&gt;" class="cls-2" d="M703.9,326.41a53.83,53.83,0,0,1-11.46,4.65c-5,1.43-9.07,2.15-11.81,1.79a6.06,6.06,0,0,1-3.94-1.91l-.12-.12c0-.12.12-.12.24-.12l1-.12c2-.12,5.61-.24,9.79-.83,4.89-.72,12.65-2.15,16.23-3.58.12,0,.12.12.12.24" transform="translate(-63.15 -260.5)"/><path id="_Path_3" data-name="&lt;Path&gt;" class="cls-2" d="M703.42,332.61c.12,0,.12,0,.12.12a7.93,7.93,0,0,1-3.81,4.66c-3.47,1.67-5.26.71-5.49.59a.42.42,0,0,1-.12-.24.12.12,0,0,1,.12-.12,21.93,21.93,0,0,0,9.18-5h0" transform="translate(-63.15 -260.5)"/><path id="_Path_4" data-name="&lt;Path&gt;" class="cls-2" d="M726,300.15l.12.12a.12.12,0,0,1-.12.12c-1.07-.24-3.22-.84-6-1.67-6.33-1.68-30.08-8-30.44-8h-.12a7.76,7.76,0,0,1-3.46-2.15,7.12,7.12,0,0,1-.72-.95,9.42,9.42,0,0,1-1.07-3.35v-.12h.24l3.94,1.56c9.19,3.46,33.65,12.89,37.59,14.44" transform="translate(-63.15 -260.5)"/><path id="_Path_5" data-name="&lt;Path&gt;" class="cls-2" d="M722,296.45c0,.12,0,.24-.12.12-1.43-.72-4.53-2.15-7.75-3.7-2.63-1.32-21-9.91-22.32-10.51l-2.15-1.07c-.36-.12-.6-.36-1-.48a5.58,5.58,0,0,1-2.74-3.1,10.67,10.67,0,0,1-.48-3.34.12.12,0,0,1,.12-.12h.24l2.27,1.43,1.19.72,6.69,4.05c9.42,5.61,22.55,13.85,26,16" transform="translate(-63.15 -260.5)"/><path id="_Path_6" data-name="&lt;Path&gt;" class="cls-2" d="M728.73,302.77l.12.12a.12.12,0,0,1-.12.12l-36.05-2.38a2,2,0,0,1-.83-.12,6.91,6.91,0,0,1-4.66-4.78v-.24a.42.42,0,0,1,.24-.12c-.12,0,38.2,6.81,41.3,7.4" transform="translate(-63.15 -260.5)"/><path id="_Path_7" data-name="&lt;Path&gt;" class="cls-2" d="M727.18,304.92a.12.12,0,0,1,.12.12l-.12.12c-1.32.24-26,3.7-26.14,3.7h-.84a5.5,5.5,0,0,1-3.34-1.79,7.68,7.68,0,0,1-1.07-1.79v-.12l.12-.12s8.23,0,13.48-.12h17.79" transform="translate(-63.15 -260.5)"/><path id="_Path_8" data-name="&lt;Path&gt;" class="cls-2" d="M725.27,307.43h.12a.17.17,0,0,1,0,.24c-.84.59-18.5,7.87-18.74,8a2.11,2.11,0,0,1-2.87-.83c-.36-.6-.59-1-.71-1.19s-.24-.24.24-.48c0,0,5-1.32,9.42-2.51,5.26-1.31,11.11-2.74,12.54-3.22" transform="translate(-63.15 -260.5)"/><path id="_Path_9" data-name="&lt;Path&gt;" class="cls-2" d="M717.51,319.72c.12,0,.12.12.12.24-1.67,2-8,9-10.86,12.06-.36.35-.48.12-.36-.12a9.68,9.68,0,0,0,.72-2.39c.12-.6.23-1.19.59-1.43,3.82-3.23,7.4-6.33,9.79-8.36Z" transform="translate(-63.15 -260.5)"/><path id="_Path_10" data-name="&lt;Path&gt;" class="cls-2" d="M723.36,310.89c.12,0,.12.12.12.24-1.67,1.43-9.67,8.12-14,11.58l-.12.12c-1.19.95-2,1.19-2.26-.84a4.54,4.54,0,0,0-.12-1c-.12-.47,0-.47.23-.47,1.44-.84,4.06-2.39,6.21-3.7,3.7-2.27,8.24-4.9,9.91-6" transform="translate(-63.15 -260.5)"/></g></g><path id="_Compound_Path_" data-name="&lt;Compound Path&gt;" class="cls-1" d="M552.92,308.62l6.8,1.79c2.87.72,3.82,2.51,3.82,4.3,0,2.74-1.79,4.42-6,4.42l-13,.12v5.84h13.25c8,0,12.65-4.29,12.65-10s-2.26-8.6-8.23-10.15l-7.76-2.15c-2.15-.59-4.06-1.55-4.06-4.17s1.67-4.06,5.13-4.06h6.93c3.1,0,6.68-1.07,6.68-6H556c-8,0-12.65,4.06-12.65,9.91C543.37,304,546.71,307.07,552.92,308.62Zm37.6,17.07c6.92,0,13.72-3.34,13.72-10.14v-19.7c0-5.37-2-7.16-6.44-7.16V314c0,3.7-3.11,5.49-7,5.49-4.29,0-7-1.91-7-5.49V295c0-5.38-3.34-6.33-6.32-6.33v26.86C577.27,322.35,583.35,325.69,590.52,325.69Zm28.64-23.27c0-4.9,2.63-7.76,7.52-7.76h1.91c5.61,0,6.45-2.87,6.45-6h-9c-7.87,0-13.37,4.54-13.37,14v22.56H619V302.42Zm31.15,23.51c8,0,10.86-5.61,10.86-5.61.48,3.7,2.51,4.89,6.57,4.89V293.82h0v-5.25H652c-8.47,0-16.47,6.21-16.83,18.5C634.8,318.17,640.52,325.93,650.31,325.93Zm1.79-31.39h8.6v15.63c0,5-2.87,9.91-9.2,9.91-5.6,0-9.66-3.82-9.42-12.89C642.31,298.48,646.61,294.54,652.1,294.54Z" transform="translate(-63.15 -260.5)"/><line class="cls-3" x1="443.9" y1="1.12" x2="443.9" y2="89.47"/></svg>